<svg width="120" height="120" viewBox="0 0 120 120" fill="none" xmlns="http://www.w3.org/2000/svg">
<path fill-rule="evenodd" clip-rule="evenodd" d="M117 60C117 91.4802 91.4802 117 60 117C28.5198 117 3 91.4802 3 60C3 28.5198 28.5198 3 60 3C91.4802 3 117 28.5198 117 60ZM120 60C120 93.1371 93.1371 120 60 120C26.8629 120 0 93.1371 0 60C0 26.8629 26.8629 0 60 0C93.1371 0 120 26.8629 120 60ZM77.6777 83.3345L60.7071 66.3639L43.0294 84.0416L37.3726 78.3848L55.0503 60.707L36.6655 42.3223L42.3224 36.6654L60.7071 55.0502L78.3848 37.3726L84.0416 43.0294L66.364 60.707L83.3346 77.6776L77.6777 83.3345Z" fill="#EE3465"/>
</svg>